# xmcd CD database file
#
# Track frame offsets:
#	150
#	19757
#	31947
#	49685
#	60555
#	70425
#	80287
#	99075
#	114387
#	124755
#	135132
#	148347
#	165342
#	188314
#	205637
#	219644
#	238982
#	252897
#	268829
#	288762
#	301567
#	314527
#
# Disc length: 4436 seconds
#
# Revision: 0
# Processed by: cddbd v1.5.2PL0 Copyright (c) Steve Scherf et al.
# Submitted via: CDex 1.40Beta9
#
DISCID=27115216
DTITLE=J.J.Cale - # 8
DYEAR=1983
DGENRE=Blues
TTITLE0=Money Talks
TTITLE1=Losers
TTITLE2=Hard Times
TTITLE3=Reality
TTITLE4=Talkin' Care Of Business
TTITLE5=People Lie
TTITLE6=Unemployment
TTITLE7=Trouble In The City
TTITLE8=Teardrops In My Tequila
TTITLE9=Livin' Here Too
TTITLE10=Long Way Home
TTITLE11=Sho-Biz Blues
TTITLE12=Slower Baby
TTITLE13=Devil's Nurse
TTITLE14=Like You Used Too
TTITLE15=Borrowed Time
TTITLE16=Rose In The Garden
TTITLE17=Brown Dirt
TTITLE18=Hard Love
TTITLE19=Ain't Love Funny
TTITLE20=Closer To You
TTITLE21=Steve's Song
EXTD=YEAR: 1983 ID3G: 0
EXTT0=
EXTT1=
EXTT2=
EXTT3=
EXTT4=
EXTT5=
EXTT6=
EXTT7=
EXTT8=
EXTT9=
EXTT10=
EXTT11=
EXTT12=
EXTT13=
EXTT14=
EXTT15=
EXTT16=
EXTT17=
EXTT18=
EXTT19=
EXTT20=
EXTT21=
PLAYORDER=
